PathFileType	4	(X/Y/Z)	OpenSim_Sub09_EMGBaseline_Gyro.trc
DataRate	CameraRate	NumFrames	NumMarkers	Units	OrigDataRate	OrigDataStartFrame	OrigNumFrames
100	100	30	8	m	100	4564	7301
Frame#	Time	torso_imu_offset_imu	pelvis_imu_offset_imu	tibia_r_imu_offset_imu	femur_r_imu_offset_imu	tibia_l_imu_offset_imu	femur_l_imu_offset_imu	toes_r_imu_offset_imu	toes_l_imu_offset_imu
				X1	Y1	Z1	X2	Y2	Z2	X3	Y3	Z3	X4	Y4	Z4	X5	Y5	Z5	X6	Y6	Z6	X7	Y7	Z7	X8		Y8	Z8	

4564	45.63000000	0.26742000	-0.12183500	-0.04433200	-0.03492900	0.10511800	-0.51798500	-0.14406100	-0.13159500	-0.35109500	-0.88251200	-0.21744400	-0.74607500	-0.09077700	-0.28376700	-2.78045100	-0.55879000	-0.02377000	-0.75201500	0.27794500	0.07495600	-0.09927800	0.77952800	2.95577500	-1.62028800
4565	45.64000000	0.25431900	-0.12978100	-0.04616300	-0.03143900	0.10990800	-0.48338100	-0.13501500	-0.12679300	-0.35051500	-0.73553000	-0.17038100	-0.73930400	-0.17316900	-0.26147400	-3.04118700	-0.52442000	0.02129400	-0.66641800	0.26702900	0.05653500	-0.11472400	0.86591200	3.07505900	-1.77830600
4566	45.65000000	0.22887400	-0.15351900	-0.04931300	-0.01579900	0.12015900	-0.43131100	-0.10949900	-0.13527500	-0.37682300	-0.53354200	-0.12171500	-0.73263200	-0.22672100	-0.20854200	-3.30271500	-0.47777300	0.06119500	-0.60080200	0.26298500	0.06165700	-0.11685300	0.99291300	3.22382400	-1.92997500
4567	45.66000000	0.20682100	-0.17137500	-0.04678100	0.00921900	0.12877900	-0.37283700	-0.08206500	-0.14036200	-0.41332900	-0.34289700	-0.07609900	-0.72524000	-0.35014900	-0.15419100	-3.54934200	-0.40873600	0.06726600	-0.53860900	0.25481100	0.06243500	-0.12059200	1.13208600	3.35149600	-2.05567400
4568	45.67000000	0.19441500	-0.18803200	-0.04552500	0.02647800	0.13590300	-0.30166300	-0.10125000	-0.13857200	-0.46344100	-0.20750700	-0.04301900	-0.70084000	-0.55728000	-0.09043300	-3.74609800	-0.32417500	0.05221800	-0.51686600	0.24618600	0.04950400	-0.12179100	1.23514200	3.45305100	-2.13988000
4569	45.68000000	0.18381900	-0.20369700	-0.04806000	0.05516100	0.13411100	-0.23164400	-0.16576200	-0.13271900	-0.50742100	-0.11411700	-0.01774700	-0.67869000	-0.73900800	-0.02253100	-3.87760600	-0.26479500	0.03223500	-0.50142000	0.22050900	0.04033300	-0.12188900	1.30231500	3.54266900	-2.18351100
4570	45.69000000	0.18773600	-0.21545400	-0.05624200	0.09128100	0.13533400	-0.16124400	-0.22337300	-0.10839000	-0.54267600	-0.03197200	0.01359600	-0.66991100	-0.86170400	0.03776900	-3.97478400	-0.23216300	0.03951500	-0.48371200	0.21907500	0.04298700	-0.12914000	1.31593000	3.59801700	-2.17523900
4571	45.70000000	0.18708400	-0.21579000	-0.06268200	0.12309700	0.12359400	-0.10041400	-0.31911900	-0.05799300	-0.56373800	0.05426700	0.03303500	-0.65323000	-0.89316300	0.06472800	-4.06751700	-0.22614400	0.06647400	-0.45544000	0.21488200	0.02827100	-0.14602000	1.27434000	3.59209000	-2.12995900
4572	45.71000000	0.18804600	-0.22152200	-0.06875300	0.17045600	0.11745900	-0.04624900	-0.39212100	-0.04375800	-0.55429000	0.14369700	0.04429000	-0.64988700	-0.89340900	0.09140100	-4.16933800	-0.24756500	0.08844900	-0.40675100	0.24422300	0.02706700	-0.16154000	1.18255300	3.51400400	-2.08554300
4573	45.72000000	0.20116300	-0.23241000	-0.07124700	0.21132200	0.11804000	-0.00612200	-0.32848600	-0.07900100	-0.54962200	0.22561600	0.03255400	-0.65809000	-0.85261000	0.16881100	-4.24839900	-0.28569200	0.09946400	-0.32479200	0.24282000	0.03917300	-0.17308600	1.10114700	3.39884800	-2.07985800
4574	45.73000000	0.19885400	-0.23274000	-0.07238700	0.25429500	0.11586300	0.01617200	-0.19155100	-0.06595900	-0.57999400	0.30651100	-0.00299300	-0.66340700	-0.71596400	0.27831600	-4.27072200	-0.27323600	0.10068700	-0.24260100	0.28465400	0.02741400	-0.19489200	1.07240800	3.24207000	-2.10021100
4575	45.74000000	0.18773700	-0.22730500	-0.06578100	0.28587800	0.11632500	0.02615700	-0.07646200	-0.07199300	-0.64271400	0.38418400	-0.03297000	-0.66438500	-0.45745000	0.32218400	-4.23618000	-0.19248300	0.10582600	-0.18053600	0.27783900	0.04597900	-0.20592900	1.08262900	3.07930700	-2.15126500
4576	45.75000000	0.19260100	-0.22972600	-0.06038000	0.31025900	0.11108300	0.02216200	0.04446400	-0.06894500	-0.67140200	0.46091700	-0.05690900	-0.67387100	-0.13884000	0.26132500	-4.17864600	-0.07003500	0.10117900	-0.12362600	0.28398600	0.03721300	-0.21498300	1.09786200	2.95079000	-2.23626800
4577	45.76000000	0.20013000	-0.22422600	-0.05255500	0.32783800	0.10591800	0.01890800	0.13160500	-0.06031700	-0.67553400	0.54256000	-0.06829500	-0.69436600	0.17955800	0.13616900	-4.09838000	0.03429600	0.09868000	-0.07030400	0.27005000	0.03073500	-0.21548200	1.06251400	2.86930700	-2.33327000
4578	45.77000000	0.20003000	-0.21573900	-0.04253100	0.33749200	0.10582000	0.01721700	0.12994900	-0.09696400	-0.67707800	0.62551600	-0.06867300	-0.70728900	0.48169300	-0.00079200	-4.02687300	0.10993900	0.11372700	0.00545500	0.26300900	0.00529100	-0.20903300	0.99020400	2.81952600	-2.41657900
4579	45.78000000	0.20305000	-0.20442100	-0.03150700	0.33177700	0.10960700	0.02094000	0.08421800	-0.11429100	-0.69427500	0.68755800	-0.06949600	-0.71539500	0.77219000	-0.08601700	-3.96703700	0.19117500	0.14424300	0.05039300	0.21902900	-0.01835000	-0.20439100	0.92147900	2.79761900	-2.47037900
4580	45.79000000	0.21193500	-0.18914300	-0.01720700	0.31315600	0.11097600	0.02817600	-0.00348900	-0.10349400	-0.74207200	0.72142500	-0.07591200	-0.70642800	0.99409800	-0.14441100	-3.90130800	0.24360100	0.18586900	0.08393300	0.21630000	-0.02408300	-0.20487300	0.90325200	2.77712600	-2.47294400
4581	45.80000000	0.21985000	-0.17932000	-0.00332700	0.30058800	0.11135300	0.03281900	-0.10002300	-0.09570600	-0.78356900	0.74416000	-0.07825800	-0.68463400	1.09874900	-0.21613700	-3.82455200	0.32651700	0.21294300	0.09697000	0.21593300	-0.04606400	-0.20774000	0.93189800	2.73338600	-2.41202400
4582	45.81000000	0.21840300	-0.15834800	-0.00068500	0.28174500	0.11657200	0.04349000	-0.17964300	-0.10147000	-0.78405400	0.77231900	-0.08547600	-0.67352200	1.02304200	-0.29667800	-3.73601900	0.40830700	0.21212800	0.09131800	0.20126400	-0.06873100	-0.21266100	0.95561800	2.63032200	-2.28686600
4583	45.82000000	0.22059100	-0.13449000	0.01625300	0.27022800	0.11328400	0.05664600	-0.23044000	-0.13918600	-0.77563000	0.80042300	-0.08448300	-0.66903400	0.81752500	-0.33710400	-3.65642300	0.41422300	0.19899200	0.11588100	0.20727200	-0.08344800	-0.22121100	0.98764600	2.49890700	-2.12130500
4584	45.83000000	0.22276600	-0.12109600	0.02418400	0.24798600	0.11686500	0.06774700	-0.31616900	-0.17024600	-0.81310600	0.81463700	-0.07707200	-0.65754200	0.53856000	-0.31221300	-3.58064200	0.39497800	0.19165300	0.12873800	0.18472900	-0.10862400	-0.22172200	0.98889300	2.36352700	-1.95831500
4585	45.84000000	0.21753000	-0.09615300	0.03318500	0.22675500	0.11150600	0.08338100	-0.36840500	-0.18416800	-0.89775100	0.80177900	-0.06855200	-0.66112800	0.21936600	-0.25353000	-3.52341800	0.33735000	0.18153500	0.15459500	0.16492800	-0.12852600	-0.22588700	0.90756300	2.24221000	-1.84961200
4586	45.85000000	0.20853800	-0.07779400	0.03955100	0.20168500	0.10548800	0.09307300	-0.43968100	-0.19074300	-0.94773500	0.70862200	-0.06367000	-0.65627900	-0.09083600	-0.15166400	-3.42693900	0.27258100	0.16079700	0.18693500	0.14920300	-0.14403500	-0.22855000	0.86710800	2.13382000	-1.82725500
4587	45.86000000	0.20170100	-0.06208700	0.04649100	0.17378800	0.09591900	0.09524900	-0.45736600	-0.16373700	-0.95362200	0.57576500	-0.05740400	-0.63662100	-0.33142400	-0.07122100	-3.23942800	0.24502600	0.12805700	0.20301100	0.15101500	-0.17689500	-0.23576600	0.86809000	2.04655600	-1.83104700
4588	45.87000000	0.19284200	-0.04415100	0.04853800	0.15223200	0.09249200	0.09431900	-0.38517800	-0.16939700	-0.96846500	0.47549200	-0.06078700	-0.60062800	-0.39524600	-0.04022800	-3.05637400	0.24396500	0.07527200	0.21116500	0.13029500	-0.18346900	-0.23426500	0.83772000	1.94755600	-1.89138500
4589	45.88000000	0.19355700	-0.03253400	0.05168100	0.14966200	0.10246700	0.07505100	-0.31587300	-0.17689800	-1.00665900	0.36583600	-0.06398700	-0.56535400	-0.43452100	0.05156500	-2.80514400	0.30646800	0.00845300	0.23252100	0.12455800	-0.19998400	-0.25206300	0.90275000	1.80597500	-1.98992400
4590	45.89000000	0.19345800	-0.01898300	0.05170100	0.13847900	0.09398900	0.05968800	-0.24868200	-0.15615300	-1.06531200	0.31919300	-0.05996500	-0.54981000	-0.57709600	0.23808100	-2.41990700	0.42126800	-0.02394200	0.22475700	0.12750900	-0.22287200	-0.26445700	1.02293300	1.64173600	-1.94849200
4591	45.90000000	0.19831100	0.00092600	0.05609000	0.11905400	0.08600400	0.04041100	-0.24572400	-0.15928000	-1.08488500	0.33173500	-0.04769900	-0.55720300	-0.41867400	0.21021600	-2.00429500	0.53652000	-0.03305100	0.13478000	0.15801600	-0.24792600	-0.28993200	0.89149200	1.50210200	-1.67218600
4592	45.91000000	0.21000300	0.02124500	0.06086200	0.08436400	0.07683500	0.02239700	-0.24592400	-0.18698100	-1.08067800	0.35917500	-0.03367500	-0.56331500	0.26029200	-0.12221600	-1.61494700	0.58362200	-0.10480500	0.00084300	0.15471600	-0.26315700	-0.30542800	0.56659800	1.35665800	-1.19464900
4593	45.92000000	0.21064900	0.03968200	0.06398800	0.05871300	0.06318900	0.00113700	-0.24897500	-0.19560500	-1.11890200	0.39390200	-0.01763200	-0.56844200	0.89530900	-0.36942600	-1.21521000	0.50256500	-0.17078500	-0.12311000	0.14154000	-0.28575700	-0.31111100	0.21074000	1.20341700	-0.64756500
